<svg width="2048" height="896" viewBox="0 0 2048 896" fill="none" xmlns="http://www.w3.org/2000/svg">
<g clip-path="url(#clip0)">
<rect width="2048" height="896" fill="#EFF3EF"/>
<g clip-path="url(#clip1)">
<rect x="-9.61865" y="7.35205" width="24" height="184.084" transform="rotate(-45 -9.61865 7.35205)" fill="#8D9096"/>
</g>
<g clip-path="url(#clip2)">
<rect x="118.381" y="7.35205" width="24" height="184.084" transform="rotate(-45 118.381 7.35205)" fill="#8D9096"/>
</g>
<g clip-path="url(#clip3)">
<rect x="502.381" y="135.352" width="24" height="184.084" transform="rotate(-45 502.381 135.352)" fill="#8D9096"/>
</g>
<g clip-path="url(#clip4)">
<rect x="886.381" y="135.352" width="24" height="184.084" transform="rotate(-45 886.381 135.352)" fill="#8D9096"/>
</g>
<g clip-path="url(#clip5)">
<rect x="1014.38" y="135.352" width="24" height="184.084" transform="rotate(-45 1014.38 135.352)" fill="#8D9096"/>
</g>
<g clip-path="url(#clip6)">
<rect x="1142.38" y="135.352" width="24" height="184.084" transform="rotate(-45 1142.38 135.352)" fill="#8D9096"/>
</g>
<g clip-path="url(#clip7)">
<rect x="1270.38" y="135.352" width="24" height="184.084" transform="rotate(-45 1270.38 135.352)" fill="#8D9096"/>
</g>
<g clip-path="url(#clip8)">
<rect x="1526.38" y="135.352" width="24" height="184.084" transform="rotate(-45 1526.38 135.352)" fill="#8D9096"/>
</g>
<g clip-path="url(#clip9)">
<rect x="758.381" y="135.352" width="24" height="184.084" transform="rotate(-45 758.381 135.352)" fill="#8D9096"/>
</g>
<g clip-path="url(#clip10)">
<rect x="374.381" y="7.35205" width="24" height="184.084" transform="rotate(-45 374.381 7.35205)" fill="#8D9096"/>
</g>
<g clip-path="url(#clip11)">
<rect x="758.381" y="7.35205" width="24" height="184.084" transform="rotate(-45 758.381 7.35205)" fill="#8D9096"/>
</g>
<g clip-path="url(#clip12)">
<rect x="886.381" y="7.35205" width="24" height="184.084" transform="rotate(-45 886.381 7.35205)" fill="#8D9096"/>
</g>
<g clip-path="url(#clip13)">
<rect x="1014.38" y="7.35205" width="24" height="184.084" transform="rotate(-45 1014.38 7.35205)" fill="#8D9096"/>
</g>
<g clip-path="url(#clip14)">
<rect x="1398.38" y="7.35205" width="24" height="184.084" transform="rotate(-45 1398.38 7.35205)" fill="#8D9096"/>
</g>
<g clip-path="url(#clip15)">
<rect x="1654.38" y="7.35205" width="24" height="184.084" transform="rotate(-45 1654.38 7.35205)" fill="#8D9096"/>
</g>
<g clip-path="url(#clip16)">
<rect x="1910.38" y="7.35205" width="24" height="184.084" transform="rotate(-45 1910.38 7.35205)" fill="#8D9096"/>
</g>
<g clip-path="url(#clip17)">
<rect x="118.381" y="263.352" width="24" height="184.084" transform="rotate(-45 118.381 263.352)" fill="#8D9096"/>
</g>
<g clip-path="url(#clip18)">
<rect x="118.381" y="391.352" width="24" height="184.084" transform="rotate(-45 118.381 391.352)" fill="#8D9096"/>
</g>
<g clip-path="url(#clip19)">
<rect x="118.381" y="519.352" width="24" height="184.084" transform="rotate(-45 118.381 519.352)" fill="#8D9096"/>
</g>
<g clip-path="url(#clip20)">
<rect x="246.381" y="519.352" width="24" height="184.084" transform="rotate(-45 246.381 519.352)" fill="#8D9096"/>
</g>
<g clip-path="url(#clip21)">
<rect x="1270.38" y="519.352" width="24" height="184.084" transform="rotate(-45 1270.38 519.352)" fill="#8D9096"/>
</g>
<g clip-path="url(#clip22)">
<rect x="1398.38" y="519.352" width="24" height="184.084" transform="rotate(-45 1398.38 519.352)" fill="#8D9096"/>
</g>
<g clip-path="url(#clip23)">
<rect x="1654.38" y="519.352" width="24" height="184.084" transform="rotate(-45 1654.38 519.352)" fill="#8D9096"/>
</g>
<g clip-path="url(#clip24)">
<rect x="-9.61865" y="647.352" width="24" height="184.084" transform="rotate(-45 -9.61865 647.352)" fill="#8D9096"/>
</g>
<g clip-path="url(#clip25)">
<rect x="-9.61865" y="775.352" width="24" height="184.084" transform="rotate(-45 -9.61865 775.352)" fill="#8D9096"/>
</g>
<g clip-path="url(#clip26)">
<rect x="374.381" y="775.352" width="24" height="184.084" transform="rotate(-45 374.381 775.352)" fill="#8D9096"/>
</g>
<g clip-path="url(#clip27)">
<rect x="1142.38" y="775.352" width="24" height="184.084" transform="rotate(-45 1142.38 775.352)" fill="#8D9096"/>
</g>
<g clip-path="url(#clip28)">
<rect x="1398.38" y="775.352" width="24" height="184.084" transform="rotate(-45 1398.38 775.352)" fill="#8D9096"/>
</g>
<g clip-path="url(#clip29)">
<rect x="1910.38" y="775.352" width="24" height="184.084" transform="rotate(-45 1910.38 775.352)" fill="#8D9096"/>
</g>
<g clip-path="url(#clip30)">
<rect x="1654.38" y="775.352" width="24" height="184.084" transform="rotate(-45 1654.38 775.352)" fill="#8D9096"/>
</g>
<g clip-path="url(#clip31)">
<rect x="1782.38" y="775.352" width="24" height="184.084" transform="rotate(-45 1782.38 775.352)" fill="#8D9096"/>
</g>
<g clip-path="url(#clip32)">
<rect x="1014.38" y="775.352" width="24" height="184.084" transform="rotate(-45 1014.38 775.352)" fill="#8D9096"/>
</g>
<g clip-path="url(#clip33)">
<rect x="886.381" y="775.352" width="24" height="184.084" transform="rotate(-45 886.381 775.352)" fill="#8D9096"/>
</g>
<g clip-path="url(#clip34)">
<rect x="758.381" y="775.352" width="24" height="184.084" transform="rotate(-45 758.381 775.352)" fill="#8D9096"/>
</g>
<g clip-path="url(#clip35)">
<rect x="630.381" y="775.352" width="24" height="184.084" transform="rotate(-45 630.381 775.352)" fill="#8D9096"/>
</g>
<g clip-path="url(#clip36)">
<rect width="24" height="184.084" transform="matrix(-0.707107 -0.707107 -0.707107 0.707107 649.619 775.352)" fill="#8D9096"/>
</g>
<g clip-path="url(#clip37)">
<rect width="24" height="184.084" transform="matrix(-0.707107 -0.707107 -0.707107 0.707107 1417.62 775.352)" fill="#8D9096"/>
</g>
<g clip-path="url(#clip38)">
<rect width="24" height="184.084" transform="matrix(-0.707107 -0.707107 -0.707107 0.707107 1673.62 775.352)" fill="#8D9096"/>
</g>
<g clip-path="url(#clip39)">
<rect x="118.381" y="647.352" width="24" height="184.084" transform="rotate(-45 118.381 647.352)" fill="#8D9096"/>
</g>
<g clip-path="url(#clip40)">
<rect x="246.381" y="647.352" width="24" height="184.084" transform="rotate(-45 246.381 647.352)" fill="#8D9096"/>
</g>
<g clip-path="url(#clip41)">
<rect x="630.381" y="647.352" width="24" height="184.084" transform="rotate(-45 630.381 647.352)" fill="#8D9096"/>
</g>
<g clip-path="url(#clip42)">
<rect x="758.381" y="647.352" width="24" height="184.084" transform="rotate(-45 758.381 647.352)" fill="#8D9096"/>
</g>
<g clip-path="url(#clip43)">
<rect x="886.381" y="647.352" width="24" height="184.084" transform="rotate(-45 886.381 647.352)" fill="#8D9096"/>
</g>
<g clip-path="url(#clip44)">
<rect x="1142.38" y="647.352" width="24" height="184.084" transform="rotate(-45 1142.38 647.352)" fill="#8D9096"/>
</g>
<g clip-path="url(#clip45)">
<rect x="1270.38" y="647.352" width="24" height="184.084" transform="rotate(-45 1270.38 647.352)" fill="#8D9096"/>
</g>
<g clip-path="url(#clip46)">
<rect x="1526.38" y="647.352" width="24" height="184.084" transform="rotate(-45 1526.38 647.352)" fill="#8D9096"/>
</g>
<g clip-path="url(#clip47)">
<rect x="1910.38" y="647.352" width="24" height="184.084" transform="rotate(-45 1910.38 647.352)" fill="#8D9096"/>
</g>
<g clip-path="url(#clip48)">
<rect x="1910.38" y="519.352" width="24" height="184.084" transform="rotate(-45 1910.38 519.352)" fill="#8D9096"/>
</g>
<g clip-path="url(#clip49)">
<rect x="1142.38" y="519.352" width="24" height="184.084" transform="rotate(-45 1142.38 519.352)" fill="#8D9096"/>
</g>
<g clip-path="url(#clip50)">
<rect x="374.381" y="391.352" width="24" height="184.084" transform="rotate(-45 374.381 391.352)" fill="#8D9096"/>
</g>
<g clip-path="url(#clip51)">
<rect x="502.381" y="391.352" width="24" height="184.084" transform="rotate(-45 502.381 391.352)" fill="#8D9096"/>
</g>
<g clip-path="url(#clip52)">
<rect x="630.381" y="391.352" width="24" height="184.084" transform="rotate(-45 630.381 391.352)" fill="#8D9096"/>
</g>
<g clip-path="url(#clip53)">
<rect x="886.381" y="391.352" width="24" height="184.084" transform="rotate(-45 886.381 391.352)" fill="#8D9096"/>
</g>
<g clip-path="url(#clip54)">
<rect x="1270.38" y="391.352" width="24" height="184.084" transform="rotate(-45 1270.38 391.352)" fill="#8D9096"/>
</g>
<g clip-path="url(#clip55)">
<rect x="1398.38" y="391.352" width="24" height="184.084" transform="rotate(-45 1398.38 391.352)" fill="#8D9096"/>
</g>
<g clip-path="url(#clip56)">
<rect x="1782.38" y="391.352" width="24" height="184.084" transform="rotate(-45 1782.38 391.352)" fill="#8D9096"/>
</g>
<g clip-path="url(#clip57)">
<rect x="1654.38" y="391.352" width="24" height="184.084" transform="rotate(-45 1654.38 391.352)" fill="#8D9096"/>
</g>
<g clip-path="url(#clip58)">
<rect x="374.381" y="263.352" width="24" height="184.084" transform="rotate(-45 374.381 263.352)" fill="#8D9096"/>
</g>
<g clip-path="url(#clip59)">
<rect x="1014.38" y="263.352" width="24" height="184.084" transform="rotate(-45 1014.38 263.352)" fill="#8D9096"/>
</g>
<g clip-path="url(#clip60)">
<rect x="1270.38" y="263.352" width="24" height="184.084" transform="rotate(-45 1270.38 263.352)" fill="#8D9096"/>
</g>
<g clip-path="url(#clip61)">
<rect x="1398.38" y="263.352" width="24" height="184.084" transform="rotate(-45 1398.38 263.352)" fill="#8D9096"/>
</g>
<g clip-path="url(#clip62)">
<rect x="1526.38" y="263.352" width="24" height="184.084" transform="rotate(-45 1526.38 263.352)" fill="#8D9096"/>
</g>
<g clip-path="url(#clip63)">
<rect x="1782.38" y="263.352" width="24" height="184.084" transform="rotate(-45 1782.38 263.352)" fill="#8D9096"/>
</g>
<g clip-path="url(#clip64)">
<rect x="1910.38" y="263.352" width="24" height="184.084" transform="rotate(-45 1910.38 263.352)" fill="#8D9096"/>
</g>
<g clip-path="url(#clip65)">
<rect x="118.381" y="135.352" width="24" height="184.084" transform="rotate(-45 118.381 135.352)" fill="#8D9096"/>
</g>
<g clip-path="url(#clip66)">
<rect width="24" height="184.084" transform="matrix(-0.707107 -0.707107 -0.707107 0.707107 393.619 7.35205)" fill="#8D9096"/>
</g>
<g clip-path="url(#clip67)">
<rect width="24" height="184.084" transform="matrix(-0.707107 -0.707107 -0.707107 0.707107 649.619 7.35205)" fill="#8D9096"/>
</g>
<g clip-path="url(#clip68)">
<rect width="24" height="184.084" transform="matrix(-0.707107 -0.707107 -0.707107 0.707107 777.619 7.35205)" fill="#8D9096"/>
</g>
<g clip-path="url(#clip69)">
<rect width="24" height="184.084" transform="matrix(-0.707107 -0.707107 -0.707107 0.707107 1289.62 7.35205)" fill="#8D9096"/>
</g>
<g clip-path="url(#clip70)">
<rect width="24" height="184.084" transform="matrix(-0.707107 -0.707107 -0.707107 0.707107 1417.62 7.35205)" fill="#8D9096"/>
</g>
<g clip-path="url(#clip71)">
<rect width="24" height="184.084" transform="matrix(-0.707107 -0.707107 -0.707107 0.707107 1673.62 7.35205)" fill="#8D9096"/>
</g>
<g clip-path="url(#clip72)">
<rect width="24" height="184.084" transform="matrix(-0.707107 -0.707107 -0.707107 0.707107 1929.62 7.35205)" fill="#8D9096"/>
</g>
<g clip-path="url(#clip73)">
<rect width="24" height="184.084" transform="matrix(-0.707107 -0.707107 -0.707107 0.707107 393.619 263.352)" fill="#8D9096"/>
</g>
<g clip-path="url(#clip74)">
<rect width="24" height="184.084" transform="matrix(-0.707107 -0.707107 -0.707107 0.707107 393.619 391.352)" fill="#8D9096"/>
</g>
<g clip-path="url(#clip75)">
<rect width="24" height="184.084" transform="matrix(-0.707107 -0.707107 -0.707107 0.707107 905.619 391.352)" fill="#8D9096"/>
</g>
<g clip-path="url(#clip76)">
<rect width="24" height="184.084" transform="matrix(-0.707107 -0.707107 -0.707107 0.707107 1289.62 391.352)" fill="#8D9096"/>
</g>
<g clip-path="url(#clip77)">
<rect width="24" height="184.084" transform="matrix(-0.707107 -0.707107 -0.707107 0.707107 1673.62 391.352)" fill="#8D9096"/>
</g>
<g clip-path="url(#clip78)">
<rect width="24" height="184.084" transform="matrix(-0.707107 -0.707107 -0.707107 0.707107 2057.62 391.352)" fill="#8D9096"/>
</g>
<g clip-path="url(#clip79)">
<rect width="24" height="184.084" transform="matrix(-0.707107 -0.707107 -0.707107 0.707107 1161.62 391.352)" fill="#8D9096"/>
</g>
<g clip-path="url(#clip80)">
<rect width="24" height="184.084" transform="matrix(-0.707107 -0.707107 -0.707107 0.707107 649.619 263.352)" fill="#8D9096"/>
</g>
<g clip-path="url(#clip81)">
<rect width="24" height="184.084" transform="matrix(-0.707107 -0.707107 -0.707107 0.707107 777.619 263.352)" fill="#8D9096"/>
</g>
<g clip-path="url(#clip82)">
<rect width="24" height="184.084" transform="matrix(-0.707107 -0.707107 -0.707107 0.707107 905.619 263.352)" fill="#8D9096"/>
</g>
<g clip-path="url(#clip83)">
<rect width="24" height="184.084" transform="matrix(-0.707107 -0.707107 -0.707107 0.707107 1033.62 263.352)" fill="#8D9096"/>
</g>
<g clip-path="url(#clip84)">
<rect width="24" height="184.084" transform="matrix(-0.707107 -0.707107 -0.707107 0.707107 1289.62 263.352)" fill="#8D9096"/>
</g>
<g clip-path="url(#clip85)">
<rect width="24" height="184.084" transform="matrix(-0.707107 -0.707107 -0.707107 0.707107 1801.62 263.352)" fill="#8D9096"/>
</g>
<g clip-path="url(#clip86)">
<rect width="24" height="184.084" transform="matrix(-0.707107 -0.707107 -0.707107 0.707107 521.619 135.352)" fill="#8D9096"/>
</g>
<g clip-path="url(#clip87)">
<rect width="24" height="184.084" transform="matrix(-0.707107 -0.707107 -0.707107 0.707107 777.619 135.352)" fill="#8D9096"/>
</g>
<g clip-path="url(#clip88)">
<rect width="24" height="184.084" transform="matrix(-0.707107 -0.707107 -0.707107 0.707107 1545.62 135.352)" fill="#8D9096"/>
</g>
<g clip-path="url(#clip89)">
<rect width="24" height="184.084" transform="matrix(-0.707107 -0.707107 -0.707107 0.707107 1801.62 135.352)" fill="#8D9096"/>
</g>
<g clip-path="url(#clip90)">
<rect width="24" height="184.084" transform="matrix(-0.707107 -0.707107 -0.707107 0.707107 1929.62 135.352)" fill="#8D9096"/>
</g>
<g clip-path="url(#clip91)">
<rect width="24" height="184.084" transform="matrix(-0.707107 -0.707107 -0.707107 0.707107 2057.62 135.352)" fill="#8D9096"/>
</g>
<g clip-path="url(#clip92)">
<rect width="24" height="184.084" transform="matrix(-0.707107 -0.707107 -0.707107 0.707107 137.619 135.352)" fill="#8D9096"/>
</g>
<g clip-path="url(#clip93)">
<rect width="24" height="184.084" transform="matrix(-0.707107 -0.707107 -0.707107 0.707107 137.619 263.352)" fill="#8D9096"/>
</g>
<g clip-path="url(#clip94)">
<rect width="24" height="184.084" transform="matrix(-0.707107 -0.707107 -0.707107 0.707107 137.619 391.352)" fill="#8D9096"/>
</g>
<g clip-path="url(#clip95)">
<rect width="24" height="184.084" transform="matrix(-0.707107 -0.707107 -0.707107 0.707107 137.619 519.352)" fill="#8D9096"/>
</g>
<g clip-path="url(#clip96)">
<rect width="24" height="184.084" transform="matrix(-0.707107 -0.707107 -0.707107 0.707107 393.619 775.352)" fill="#8D9096"/>
</g>
<g clip-path="url(#clip97)">
<rect width="24" height="184.084" transform="matrix(-0.707107 -0.707107 -0.707107 0.707107 265.619 775.352)" fill="#8D9096"/>
</g>
<g clip-path="url(#clip98)">
<rect width="24" height="184.084" transform="matrix(-0.707107 -0.707107 -0.707107 0.707107 649.619 647.352)" fill="#8D9096"/>
</g>
<g clip-path="url(#clip99)">
<rect width="24" height="184.084" transform="matrix(-0.707107 -0.707107 -0.707107 0.707107 1161.62 647.352)" fill="#8D9096"/>
</g>
<g clip-path="url(#clip100)">
<rect width="24" height="184.084" transform="matrix(-0.707107 -0.707107 -0.707107 0.707107 1545.62 647.352)" fill="#8D9096"/>
</g>
<g clip-path="url(#clip101)">
<rect width="24" height="184.084" transform="matrix(-0.707107 -0.707107 -0.707107 0.707107 1801.62 647.352)" fill="#8D9096"/>
</g>
<g clip-path="url(#clip102)">
<rect width="24" height="184.084" transform="matrix(-0.707107 -0.707107 -0.707107 0.707107 1929.62 647.352)" fill="#8D9096"/>
</g>
<g clip-path="url(#clip103)">
<rect width="24" height="184.084" transform="matrix(-0.707107 -0.707107 -0.707107 0.707107 521.619 647.352)" fill="#8D9096"/>
</g>
<g clip-path="url(#clip104)">
<rect width="24" height="184.084" transform="matrix(-0.707107 -0.707107 -0.707107 0.707107 521.619 519.352)" fill="#8D9096"/>
</g>
<g clip-path="url(#clip105)">
<rect width="24" height="184.084" transform="matrix(-0.707107 -0.707107 -0.707107 0.707107 649.619 519.352)" fill="#8D9096"/>
</g>
<g clip-path="url(#clip106)">
<rect width="24" height="184.084" transform="matrix(-0.707107 -0.707107 -0.707107 0.707107 777.619 519.352)" fill="#8D9096"/>
</g>
<g clip-path="url(#clip107)">
<rect width="24" height="184.084" transform="matrix(-0.707107 -0.707107 -0.707107 0.707107 905.619 519.352)" fill="#8D9096"/>
</g>
<g clip-path="url(#clip108)">
<rect width="24" height="184.084" transform="matrix(-0.707107 -0.707107 -0.707107 0.707107 1033.62 519.352)" fill="#8D9096"/>
</g>
<g clip-path="url(#clip109)">
<rect width="24" height="184.084" transform="matrix(-0.707107 -0.707107 -0.707107 0.707107 1161.62 519.352)" fill="#8D9096"/>
</g>
<g clip-path="url(#clip110)">
<rect width="24" height="184.084" transform="matrix(-0.707107 -0.707107 -0.707107 0.707107 1673.62 519.352)" fill="#8D9096"/>
</g>
<g clip-path="url(#clip111)">
<rect width="24" height="184.084" transform="matrix(-0.707107 -0.707107 -0.707107 0.707107 1929.62 519.352)" fill="#8D9096"/>
</g>
<g clip-path="url(#clip112)">
<rect width="24" height="184.084" transform="matrix(-0.707107 -0.707107 -0.707107 0.707107 393.619 135.352)" fill="#8D9096"/>
</g>
<circle cx="1024" cy="448" r="211" fill="#EFF3EF"/>
<g clip-path="url(#clip113)">
<path d="M954.599 344.214H924V450.409H954.599V344.214Z" fill="#C35638"/>
<path d="M955.165 344.057L929.007 359.784L984.633 450.567L1010.79 434.839L955.165 344.057Z" fill="#C35638"/>
<path d="M1015.23 344.371H984.632V450.567H1015.23V344.371Z" fill="#C35638"/>
<path d="M1076.43 344.371H1045.83V450.567H1076.43V344.371Z" fill="#C35638"/>
<path d="M1123.94 356.78L1100.87 344.467L1045.94 407.941L1069.01 420.254L1123.94 356.78Z" fill="#C35638"/>
<path d="M1123.85 437.705L1100.78 450.019L1045.85 386.544L1068.92 374.231L1123.85 437.705Z" fill="#C35638"/>
<path d="M1030.53 344.311C1038.98 344.311 1045.83 337.525 1045.83 329.155C1045.83 320.785 1038.98 314 1030.53 314C1022.08 314 1015.23 320.785 1015.23 329.155C1015.23 337.525 1022.08 344.311 1030.53 344.311Z" fill="#C35638"/>
<path d="M1123.94 344.467H1100.87V356.78H1123.94V344.467Z" fill="#C35638"/>
<path d="M1123.85 437.705H1100.78V450.019H1123.85V437.705Z" fill="#C35638"/>
</g>
<path d="M931.98 566.944C925.196 568.416 919.084 569.152 913.644 569.152C908.204 569.152 903.852 568.48 900.588 567.136C897.324 565.792 894.764 563.648 892.908 560.704C891.052 557.76 889.772 554.304 889.068 550.336C888.364 546.368 888.012 541.376 888.012 535.36C888.012 522.752 889.772 513.984 893.292 509.056C896.876 504.064 903.436 501.568 912.972 501.568C918.476 501.568 924.844 502.432 932.076 504.16L931.692 514.72C925.356 513.76 920.076 513.28 915.852 513.28C911.692 513.28 908.716 513.856 906.924 515.008C905.132 516.096 903.788 518.208 902.892 521.344C902.06 524.48 901.644 529.824 901.644 537.376C901.644 544.928 902.508 550.176 904.236 553.12C906.028 556 909.548 557.44 914.796 557.44C920.108 557.44 925.74 556.992 931.692 556.096L931.98 566.944ZM955.703 552.64C957.623 555.968 961.175 557.632 966.359 557.632C971.543 557.632 975.063 555.968 976.919 552.64C978.839 549.248 979.799 543.616 979.799 535.744C979.799 527.808 978.839 522.048 976.919 518.464C974.999 514.88 971.479 513.088 966.359 513.088C961.239 513.088 957.719 514.88 955.799 518.464C953.879 522.048 952.919 527.808 952.919 535.744C952.919 543.616 953.847 549.248 955.703 552.64ZM987.287 561.088C983.255 566.464 976.279 569.152 966.359 569.152C956.439 569.152 949.431 566.464 945.335 561.088C941.303 555.648 939.287 547.168 939.287 535.648C939.287 524.128 941.303 515.584 945.335 510.016C949.431 504.384 956.439 501.568 966.359 501.568C976.279 501.568 983.255 504.384 987.287 510.016C991.383 515.584 993.431 524.128 993.431 535.648C993.431 547.168 991.383 555.648 987.287 561.088ZM1026.78 568H1004.79V502.72H1026.78C1032.41 502.72 1037.05 503.328 1040.7 504.544C1044.34 505.696 1047.16 507.648 1049.14 510.4C1051.19 513.088 1052.6 516.288 1053.37 520C1054.14 523.648 1054.52 528.416 1054.52 534.304C1054.52 540.192 1054.17 545.088 1053.46 548.992C1052.76 552.832 1051.42 556.288 1049.43 559.36C1047.51 562.368 1044.7 564.576 1040.98 565.984C1037.27 567.328 1032.54 568 1026.78 568ZM1040.7 542.08C1040.82 540.032 1040.89 537.216 1040.89 533.632C1040.89 529.984 1040.76 527.072 1040.5 524.896C1040.25 522.72 1039.64 520.736 1038.68 518.944C1037.72 517.152 1036.28 515.936 1034.36 515.296C1032.5 514.592 1029.98 514.24 1026.78 514.24H1018.04V556.48H1026.78C1031.58 556.48 1035.06 555.264 1037.24 552.832C1039.1 550.848 1040.25 547.264 1040.7 542.08ZM1066.01 568V502.72H1108.25V514.24H1079.26V529.504H1102.49V540.832H1079.26V556.48H1108.25V568H1066.01ZM1139.23 513.088C1132.25 513.088 1128.77 515.392 1128.77 520C1128.77 522.048 1129.63 523.616 1131.36 524.704C1133.09 525.792 1137.12 527.36 1143.45 529.408C1149.85 531.456 1154.33 533.792 1156.89 536.416C1159.45 538.976 1160.73 542.944 1160.73 548.32C1160.73 555.168 1158.65 560.352 1154.49 563.872C1150.33 567.392 1144.89 569.152 1138.17 569.152C1133.18 569.152 1127.07 568.384 1119.84 566.848L1116.38 566.176L1117.73 555.904C1126.3 557.056 1132.86 557.632 1137.41 557.632C1144.19 557.632 1147.58 554.816 1147.58 549.184C1147.58 547.136 1146.78 545.536 1145.18 544.384C1143.65 543.232 1140.54 541.984 1135.87 540.64C1128.45 538.528 1123.2 536.032 1120.13 533.152C1117.12 530.208 1115.61 526.144 1115.61 520.96C1115.61 514.432 1117.6 509.568 1121.57 506.368C1125.53 503.168 1130.97 501.568 1137.89 501.568C1142.62 501.568 1148.64 502.208 1155.93 503.488L1159.39 504.16L1158.33 514.624C1149.31 513.6 1142.94 513.088 1139.23 513.088Z" fill="#C35638"/>
</g>
<defs>
<clipPath id="clip0">
<rect width="2048" height="896" fill="white"/>
</clipPath>
<clipPath id="clip1">
<rect width="128" height="128" fill="white"/>
</clipPath>
<clipPath id="clip2">
<rect width="128" height="128" fill="white" transform="translate(128)"/>
</clipPath>
<clipPath id="clip3">
<rect width="128" height="128" fill="white" transform="translate(512 128)"/>
</clipPath>
<clipPath id="clip4">
<rect width="128" height="128" fill="white" transform="translate(896 128)"/>
</clipPath>
<clipPath id="clip5">
<rect width="128" height="128" fill="white" transform="translate(1024 128)"/>
</clipPath>
<clipPath id="clip6">
<rect width="128" height="128" fill="white" transform="translate(1152 128)"/>
</clipPath>
<clipPath id="clip7">
<rect width="128" height="128" fill="white" transform="translate(1280 128)"/>
</clipPath>
<clipPath id="clip8">
<rect width="128" height="128" fill="white" transform="translate(1536 128)"/>
</clipPath>
<clipPath id="clip9">
<rect width="128" height="128" fill="white" transform="translate(768 128)"/>
</clipPath>
<clipPath id="clip10">
<rect width="128" height="128" fill="white" transform="translate(384)"/>
</clipPath>
<clipPath id="clip11">
<rect width="128" height="128" fill="white" transform="translate(768)"/>
</clipPath>
<clipPath id="clip12">
<rect width="128" height="128" fill="white" transform="translate(896)"/>
</clipPath>
<clipPath id="clip13">
<rect width="128" height="128" fill="white" transform="translate(1024)"/>
</clipPath>
<clipPath id="clip14">
<rect width="128" height="128" fill="white" transform="translate(1408)"/>
</clipPath>
<clipPath id="clip15">
<rect width="128" height="128" fill="white" transform="translate(1664)"/>
</clipPath>
<clipPath id="clip16">
<rect width="128" height="128" fill="white" transform="translate(1920)"/>
</clipPath>
<clipPath id="clip17">
<rect width="128" height="128" fill="white" transform="translate(128 256)"/>
</clipPath>
<clipPath id="clip18">
<rect width="128" height="128" fill="white" transform="translate(128 384)"/>
</clipPath>
<clipPath id="clip19">
<rect width="128" height="128" fill="white" transform="translate(128 512)"/>
</clipPath>
<clipPath id="clip20">
<rect width="128" height="128" fill="white" transform="translate(256 512)"/>
</clipPath>
<clipPath id="clip21">
<rect width="128" height="128" fill="white" transform="translate(1280 512)"/>
</clipPath>
<clipPath id="clip22">
<rect width="128" height="128" fill="white" transform="translate(1408 512)"/>
</clipPath>
<clipPath id="clip23">
<rect width="128" height="128" fill="white" transform="translate(1664 512)"/>
</clipPath>
<clipPath id="clip24">
<rect width="128" height="128" fill="white" transform="translate(0 640)"/>
</clipPath>
<clipPath id="clip25">
<rect width="128" height="128" fill="white" transform="translate(0 768)"/>
</clipPath>
<clipPath id="clip26">
<rect width="128" height="128" fill="white" transform="translate(384 768)"/>
</clipPath>
<clipPath id="clip27">
<rect width="128" height="128" fill="white" transform="translate(1152 768)"/>
</clipPath>
<clipPath id="clip28">
<rect width="128" height="128" fill="white" transform="translate(1408 768)"/>
</clipPath>
<clipPath id="clip29">
<rect width="128" height="128" fill="white" transform="translate(1920 768)"/>
</clipPath>
<clipPath id="clip30">
<rect width="128" height="128" fill="white" transform="translate(1664 768)"/>
</clipPath>
<clipPath id="clip31">
<rect width="128" height="128" fill="white" transform="translate(1792 768)"/>
</clipPath>
<clipPath id="clip32">
<rect width="128" height="128" fill="white" transform="translate(1024 768)"/>
</clipPath>
<clipPath id="clip33">
<rect width="128" height="128" fill="white" transform="translate(896 768)"/>
</clipPath>
<clipPath id="clip34">
<rect width="128" height="128" fill="white" transform="translate(768 768)"/>
</clipPath>
<clipPath id="clip35">
<rect width="128" height="128" fill="white" transform="translate(640 768)"/>
</clipPath>
<clipPath id="clip36">
<rect width="128" height="128" fill="white" transform="matrix(-1 0 0 1 640 768)"/>
</clipPath>
<clipPath id="clip37">
<rect width="128" height="128" fill="white" transform="matrix(-1 0 0 1 1408 768)"/>
</clipPath>
<clipPath id="clip38">
<rect width="128" height="128" fill="white" transform="matrix(-1 0 0 1 1664 768)"/>
</clipPath>
<clipPath id="clip39">
<rect width="128" height="128" fill="white" transform="translate(128 640)"/>
</clipPath>
<clipPath id="clip40">
<rect width="128" height="128" fill="white" transform="translate(256 640)"/>
</clipPath>
<clipPath id="clip41">
<rect width="128" height="128" fill="white" transform="translate(640 640)"/>
</clipPath>
<clipPath id="clip42">
<rect width="128" height="128" fill="white" transform="translate(768 640)"/>
</clipPath>
<clipPath id="clip43">
<rect width="128" height="128" fill="white" transform="translate(896 640)"/>
</clipPath>
<clipPath id="clip44">
<rect width="128" height="128" fill="white" transform="translate(1152 640)"/>
</clipPath>
<clipPath id="clip45">
<rect width="128" height="128" fill="white" transform="translate(1280 640)"/>
</clipPath>
<clipPath id="clip46">
<rect width="128" height="128" fill="white" transform="translate(1536 640)"/>
</clipPath>
<clipPath id="clip47">
<rect width="128" height="128" fill="white" transform="translate(1920 640)"/>
</clipPath>
<clipPath id="clip48">
<rect width="128" height="128" fill="white" transform="translate(1920 512)"/>
</clipPath>
<clipPath id="clip49">
<rect width="128" height="128" fill="white" transform="translate(1152 512)"/>
</clipPath>
<clipPath id="clip50">
<rect width="128" height="128" fill="white" transform="translate(384 384)"/>
</clipPath>
<clipPath id="clip51">
<rect width="128" height="128" fill="white" transform="translate(512 384)"/>
</clipPath>
<clipPath id="clip52">
<rect width="128" height="128" fill="white" transform="translate(640 384)"/>
</clipPath>
<clipPath id="clip53">
<rect width="128" height="128" fill="white" transform="translate(896 384)"/>
</clipPath>
<clipPath id="clip54">
<rect width="128" height="128" fill="white" transform="translate(1280 384)"/>
</clipPath>
<clipPath id="clip55">
<rect width="128" height="128" fill="white" transform="translate(1408 384)"/>
</clipPath>
<clipPath id="clip56">
<rect width="128" height="128" fill="white" transform="translate(1792 384)"/>
</clipPath>
<clipPath id="clip57">
<rect width="128" height="128" fill="white" transform="translate(1664 384)"/>
</clipPath>
<clipPath id="clip58">
<rect width="128" height="128" fill="white" transform="translate(384 256)"/>
</clipPath>
<clipPath id="clip59">
<rect width="128" height="128" fill="white" transform="translate(1024 256)"/>
</clipPath>
<clipPath id="clip60">
<rect width="128" height="128" fill="white" transform="translate(1280 256)"/>
</clipPath>
<clipPath id="clip61">
<rect width="128" height="128" fill="white" transform="translate(1408 256)"/>
</clipPath>
<clipPath id="clip62">
<rect width="128" height="128" fill="white" transform="translate(1536 256)"/>
</clipPath>
<clipPath id="clip63">
<rect width="128" height="128" fill="white" transform="translate(1792 256)"/>
</clipPath>
<clipPath id="clip64">
<rect width="128" height="128" fill="white" transform="translate(1920 256)"/>
</clipPath>
<clipPath id="clip65">
<rect width="128" height="128" fill="white" transform="translate(128 128)"/>
</clipPath>
<clipPath id="clip66">
<rect width="128" height="128" fill="white" transform="matrix(-1 0 0 1 384 0)"/>
</clipPath>
<clipPath id="clip67">
<rect width="128" height="128" fill="white" transform="matrix(-1 0 0 1 640 0)"/>
</clipPath>
<clipPath id="clip68">
<rect width="128" height="128" fill="white" transform="matrix(-1 0 0 1 768 0)"/>
</clipPath>
<clipPath id="clip69">
<rect width="128" height="128" fill="white" transform="matrix(-1 0 0 1 1280 0)"/>
</clipPath>
<clipPath id="clip70">
<rect width="128" height="128" fill="white" transform="matrix(-1 0 0 1 1408 0)"/>
</clipPath>
<clipPath id="clip71">
<rect width="128" height="128" fill="white" transform="matrix(-1 0 0 1 1664 0)"/>
</clipPath>
<clipPath id="clip72">
<rect width="128" height="128" fill="white" transform="matrix(-1 0 0 1 1920 0)"/>
</clipPath>
<clipPath id="clip73">
<rect width="128" height="128" fill="white" transform="matrix(-1 0 0 1 384 256)"/>
</clipPath>
<clipPath id="clip74">
<rect width="128" height="128" fill="white" transform="matrix(-1 0 0 1 384 384)"/>
</clipPath>
<clipPath id="clip75">
<rect width="128" height="128" fill="white" transform="matrix(-1 0 0 1 896 384)"/>
</clipPath>
<clipPath id="clip76">
<rect width="128" height="128" fill="white" transform="matrix(-1 0 0 1 1280 384)"/>
</clipPath>
<clipPath id="clip77">
<rect width="128" height="128" fill="white" transform="matrix(-1 0 0 1 1664 384)"/>
</clipPath>
<clipPath id="clip78">
<rect width="128" height="128" fill="white" transform="matrix(-1 0 0 1 2048 384)"/>
</clipPath>
<clipPath id="clip79">
<rect width="128" height="128" fill="white" transform="matrix(-1 0 0 1 1152 384)"/>
</clipPath>
<clipPath id="clip80">
<rect width="128" height="128" fill="white" transform="matrix(-1 0 0 1 640 256)"/>
</clipPath>
<clipPath id="clip81">
<rect width="128" height="128" fill="white" transform="matrix(-1 0 0 1 768 256)"/>
</clipPath>
<clipPath id="clip82">
<rect width="128" height="128" fill="white" transform="matrix(-1 0 0 1 896 256)"/>
</clipPath>
<clipPath id="clip83">
<rect width="128" height="128" fill="white" transform="matrix(-1 0 0 1 1024 256)"/>
</clipPath>
<clipPath id="clip84">
<rect width="128" height="128" fill="white" transform="matrix(-1 0 0 1 1280 256)"/>
</clipPath>
<clipPath id="clip85">
<rect width="128" height="128" fill="white" transform="matrix(-1 0 0 1 1792 256)"/>
</clipPath>
<clipPath id="clip86">
<rect width="128" height="128" fill="white" transform="matrix(-1 0 0 1 512 128)"/>
</clipPath>
<clipPath id="clip87">
<rect width="128" height="128" fill="white" transform="matrix(-1 0 0 1 768 128)"/>
</clipPath>
<clipPath id="clip88">
<rect width="128" height="128" fill="white" transform="matrix(-1 0 0 1 1536 128)"/>
</clipPath>
<clipPath id="clip89">
<rect width="128" height="128" fill="white" transform="matrix(-1 0 0 1 1792 128)"/>
</clipPath>
<clipPath id="clip90">
<rect width="128" height="128" fill="white" transform="matrix(-1 0 0 1 1920 128)"/>
</clipPath>
<clipPath id="clip91">
<rect width="128" height="128" fill="white" transform="matrix(-1 0 0 1 2048 128)"/>
</clipPath>
<clipPath id="clip92">
<rect width="128" height="128" fill="white" transform="matrix(-1 0 0 1 128 128)"/>
</clipPath>
<clipPath id="clip93">
<rect width="128" height="128" fill="white" transform="matrix(-1 0 0 1 128 256)"/>
</clipPath>
<clipPath id="clip94">
<rect width="128" height="128" fill="white" transform="matrix(-1 0 0 1 128 384)"/>
</clipPath>
<clipPath id="clip95">
<rect width="128" height="128" fill="white" transform="matrix(-1 0 0 1 128 512)"/>
</clipPath>
<clipPath id="clip96">
<rect width="128" height="128" fill="white" transform="matrix(-1 0 0 1 384 768)"/>
</clipPath>
<clipPath id="clip97">
<rect width="128" height="128" fill="white" transform="matrix(-1 0 0 1 256 768)"/>
</clipPath>
<clipPath id="clip98">
<rect width="128" height="128" fill="white" transform="matrix(-1 0 0 1 640 640)"/>
</clipPath>
<clipPath id="clip99">
<rect width="128" height="128" fill="white" transform="matrix(-1 0 0 1 1152 640)"/>
</clipPath>
<clipPath id="clip100">
<rect width="128" height="128" fill="white" transform="matrix(-1 0 0 1 1536 640)"/>
</clipPath>
<clipPath id="clip101">
<rect width="128" height="128" fill="white" transform="matrix(-1 0 0 1 1792 640)"/>
</clipPath>
<clipPath id="clip102">
<rect width="128" height="128" fill="white" transform="matrix(-1 0 0 1 1920 640)"/>
</clipPath>
<clipPath id="clip103">
<rect width="128" height="128" fill="white" transform="matrix(-1 0 0 1 512 640)"/>
</clipPath>
<clipPath id="clip104">
<rect width="128" height="128" fill="white" transform="matrix(-1 0 0 1 512 512)"/>
</clipPath>
<clipPath id="clip105">
<rect width="128" height="128" fill="white" transform="matrix(-1 0 0 1 640 512)"/>
</clipPath>
<clipPath id="clip106">
<rect width="128" height="128" fill="white" transform="matrix(-1 0 0 1 768 512)"/>
</clipPath>
<clipPath id="clip107">
<rect width="128" height="128" fill="white" transform="matrix(-1 0 0 1 896 512)"/>
</clipPath>
<clipPath id="clip108">
<rect width="128" height="128" fill="white" transform="matrix(-1 0 0 1 1024 512)"/>
</clipPath>
<clipPath id="clip109">
<rect width="128" height="128" fill="white" transform="matrix(-1 0 0 1 1152 512)"/>
</clipPath>
<clipPath id="clip110">
<rect width="128" height="128" fill="white" transform="matrix(-1 0 0 1 1664 512)"/>
</clipPath>
<clipPath id="clip111">
<rect width="128" height="128" fill="white" transform="matrix(-1 0 0 1 1920 512)"/>
</clipPath>
<clipPath id="clip112">
<rect width="128" height="128" fill="white" transform="matrix(-1 0 0 1 384 128)"/>
</clipPath>
<clipPath id="clip113">
<rect width="200" height="136" fill="white" transform="translate(924 314)"/>
</clipPath>
</defs>
</svg>