<svg width="800" height="800" viewBox="0 0 800 800" fill="none" xmlns="http://www.w3.org/2000/svg">
<rect width="800" height="800" fill="#EFF3EF"/>
<g clip-path="url(#clip0)">
<path d="M238.848 183.982H170V422.921H238.848V183.982Z" fill="#C35638"/>
<path d="M240.121 183.629L181.266 219.015L306.424 423.275L365.279 387.889L240.121 183.629Z" fill="#C35638"/>
<path d="M375.271 184.334H306.423V423.275H375.271V184.334Z" fill="#C35638"/>
<path d="M512.966 184.334H444.119V423.275H512.966V184.334Z" fill="#C35638"/>
<path d="M619.868 212.255L567.959 184.552L444.355 327.368L496.262 355.071L619.868 212.255Z" fill="#C35638"/>
<path d="M619.67 394.337L567.761 422.042L444.158 279.224L496.067 251.521L619.67 394.337Z" fill="#C35638"/>
<path d="M409.695 184.199C428.707 184.199 444.119 168.932 444.119 150.099C444.119 131.267 428.707 116 409.695 116C390.683 116 375.271 131.267 375.271 150.099C375.271 168.932 390.683 184.199 409.695 184.199Z" fill="#C35638"/>
<path d="M619.868 184.552H567.959V212.255H619.868V184.552Z" fill="#C35638"/>
<path d="M619.67 394.337H567.761V422.042H619.67V394.337Z" fill="#C35638"/>
</g>
<path d="M256.25 620.35C245.65 622.65 236.1 623.8 227.6 623.8C219.1 623.8 212.3 622.75 207.2 620.65C202.1 618.55 198.1 615.2 195.2 610.6C192.3 606 190.3 600.6 189.2 594.4C188.1 588.2 187.55 580.4 187.55 571C187.55 551.3 190.3 537.6 195.8 529.9C201.4 522.1 211.65 518.2 226.55 518.2C235.15 518.2 245.1 519.55 256.4 522.25L255.8 538.75C245.9 537.25 237.65 536.5 231.05 536.5C224.55 536.5 219.9 537.4 217.1 539.2C214.3 540.9 212.2 544.2 210.8 549.1C209.5 554 208.85 562.35 208.85 574.15C208.85 585.95 210.2 594.15 212.9 598.75C215.7 603.25 221.2 605.5 229.4 605.5C237.7 605.5 246.5 604.8 255.8 603.4L256.25 620.35ZM293.316 598C296.316 603.2 301.866 605.8 309.966 605.8C318.066 605.8 323.566 603.2 326.466 598C329.466 592.7 330.966 583.9 330.966 571.6C330.966 559.2 329.466 550.2 326.466 544.6C323.466 539 317.966 536.2 309.966 536.2C301.966 536.2 296.466 539 293.466 544.6C290.466 550.2 288.966 559.2 288.966 571.6C288.966 583.9 290.416 592.7 293.316 598ZM342.666 611.2C336.366 619.6 325.466 623.8 309.966 623.8C294.466 623.8 283.516 619.6 277.116 611.2C270.816 602.7 267.666 589.45 267.666 571.45C267.666 553.45 270.816 540.1 277.116 531.4C283.516 522.6 294.466 518.2 309.966 518.2C325.466 518.2 336.366 522.6 342.666 531.4C349.066 540.1 352.266 553.45 352.266 571.45C352.266 589.45 349.066 602.7 342.666 611.2ZM404.368 622H370.018V520H404.368C413.168 520 420.418 520.95 426.118 522.85C431.818 524.65 436.218 527.7 439.318 532C442.518 536.2 444.718 541.2 445.918 547C447.118 552.7 447.718 560.15 447.718 569.35C447.718 578.55 447.168 586.2 446.068 592.3C444.968 598.3 442.868 603.7 439.768 608.5C436.768 613.2 432.368 616.65 426.568 618.85C420.768 620.95 413.368 622 404.368 622ZM426.118 581.5C426.318 578.3 426.418 573.9 426.418 568.3C426.418 562.6 426.218 558.05 425.818 554.65C425.418 551.25 424.468 548.15 422.968 545.35C421.468 542.55 419.218 540.65 416.218 539.65C413.318 538.55 409.368 538 404.368 538H390.718V604H404.368C411.868 604 417.318 602.1 420.718 598.3C423.618 595.2 425.418 589.6 426.118 581.5ZM465.672 622V520H531.672V538H486.372V561.85H522.672V579.55H486.372V604H531.672V622H465.672ZM580.079 536.2C569.179 536.2 563.729 539.8 563.729 547C563.729 550.2 565.079 552.65 567.779 554.35C570.479 556.05 576.779 558.5 586.679 561.7C596.679 564.9 603.679 568.55 607.679 572.65C611.679 576.65 613.679 582.85 613.679 591.25C613.679 601.95 610.429 610.05 603.929 615.55C597.429 621.05 588.929 623.8 578.429 623.8C570.629 623.8 561.079 622.6 549.779 620.2L544.379 619.15L546.479 603.1C559.879 604.9 570.129 605.8 577.229 605.8C587.829 605.8 593.129 601.4 593.129 592.6C593.129 589.4 591.879 586.9 589.379 585.1C586.979 583.3 582.129 581.35 574.829 579.25C563.229 575.95 555.029 572.05 550.229 567.55C545.529 562.95 543.179 556.6 543.179 548.5C543.179 538.3 546.279 530.7 552.479 525.7C558.679 520.7 567.179 518.2 577.979 518.2C585.379 518.2 594.779 519.2 606.179 521.2L611.579 522.25L609.929 538.6C595.829 537 585.879 536.2 580.079 536.2Z" fill="#C35638"/>
<defs>
<clipPath id="clip0">
<rect width="450" height="306" fill="white" transform="translate(170 116)"/>
</clipPath>
</defs>
</svg>
